<svg xmlns="http://www.w3.org/2000/svg" width="33" height="32" viewBox="0 0 33 32" fill="none"><rect x="1" y="0.5" width="31" height="31" rx="7.5" fill="white"></rect><path d="M22.6399 18.5934C22.2158 19.5964 21.5525 20.4802 20.7079 21.1676C19.8633 21.855 18.8631 22.325 17.7949 22.5366C16.7267 22.7481 15.6229 22.6948 14.58 22.3813C13.5372 22.0677 12.587 21.5034 11.8126 20.7378C11.0382 19.9722 10.4632 19.0286 10.1377 17.9894C9.81225 16.9501 9.74632 15.847 9.94568 14.7765C10.145 13.7059 10.6036 12.7005 11.2813 11.8481C11.959 10.9957 12.8352 10.3223 13.8333 9.88672" stroke="#DEB830" stroke-linecap="round" stroke-linejoin="round"></path><path d="M23.1667 15.9987C23.1667 15.1232 22.9942 14.2563 22.6592 13.4475C22.3242 12.6386 21.8331 11.9037 21.214 11.2847C20.595 10.6656 19.8601 10.1745 19.0512 9.8395C18.2424 9.50447 17.3755 9.33203 16.5 9.33203V15.9987H23.1667Z" stroke="#DEB830" stroke-linecap="round" stroke-linejoin="round"></path><rect x="1" y="0.5" width="31" height="31" rx="7.5" stroke="#E4E4E4"></rect></svg>