<svg xmlns="http://www.w3.org/2000/svg" width="33" height="32" viewBox="0 0 33 32" fill="none"><rect x="1" y="0.5" width="31" height="31" rx="7.5" fill="white"></rect><path d="M13.1666 22.6654H11.1666C10.813 22.6654 10.4738 22.5249 10.2238 22.2748C9.97373 22.0248 9.83325 21.6857 9.83325 21.332V16.6654C9.83325 16.3117 9.97373 15.9726 10.2238 15.7226C10.4738 15.4725 10.813 15.332 11.1666 15.332H13.1666M17.8333 13.9987V11.332C17.8333 10.8016 17.6225 10.2929 17.2475 9.91782C16.8724 9.54275 16.3637 9.33203 15.8333 9.33203L13.1666 15.332V22.6654H20.6866C21.0081 22.669 21.3202 22.5563 21.5652 22.348C21.8102 22.1398 21.9717 21.85 22.0199 21.532L22.9399 15.532C22.9689 15.3409 22.956 15.1458 22.9021 14.9602C22.8483 14.7746 22.7547 14.6029 22.6278 14.457C22.501 14.3112 22.344 14.1947 22.1676 14.1155C21.9913 14.0364 21.7999 13.9965 21.6066 13.9987H17.8333Z" stroke="#DF2C3C" stroke-linecap="round" stroke-linejoin="round"></path><rect x="1" y="0.5" width="31" height="31" rx="7.5" stroke="#E4E4E4"></rect></svg>