<svg xmlns="http://www.w3.org/2000/svg" width="32" height="32" viewBox="0 0 32 32" fill="none"><rect x="0.5" y="0.5" width="31" height="31" rx="7.5" fill="white"></rect><path d="M12 9.33203L10 11.9987V21.332C10 21.6857 10.1405 22.0248 10.3905 22.2748C10.6406 22.5249 10.9797 22.6654 11.3333 22.6654H20.6667C21.0203 22.6654 21.3594 22.5249 21.6095 22.2748C21.8595 22.0248 22 21.6857 22 21.332V11.9987L20 9.33203H12Z" stroke="#8B38CB" stroke-linecap="round" stroke-linejoin="round"></path><path d="M18.6667 14.668C18.6667 15.3752 18.3858 16.0535 17.8857 16.5536C17.3856 17.0537 16.7073 17.3346 16 17.3346C15.2928 17.3346 14.6145 17.0537 14.1144 16.5536C13.6143 16.0535 13.3334 15.3752 13.3334 14.668" stroke="#8B38CB" stroke-linecap="round" stroke-linejoin="round"></path><path d="M10 12H22" stroke="#8B38CB" stroke-linecap="round" stroke-linejoin="round"></path><rect x="0.5" y="0.5" width="31" height="31" rx="7.5" stroke="#E4E4E4"></rect></svg>