<svg xmlns="http://www.w3.org/2000/svg" width="32" height="32" viewBox="0 0 32 32" fill="none"><rect x="0.5" y="0.5" width="31" height="31" rx="7.5" fill="white"></rect><g clip-path="url(#clip0_3256_12245)"><path d="M21.3334 16V22.6667H10.6667V16" stroke="#DF2CAD" stroke-linecap="round" stroke-linejoin="round"></path><path d="M22.6666 12.668H9.33325V16.0013H22.6666V12.668Z" stroke="#DF2CAD" stroke-linecap="round" stroke-linejoin="round"></path><path d="M16 22.668V12.668" stroke="#DF2CAD" stroke-linecap="round" stroke-linejoin="round"></path><path d="M16 12.6654H19C19.442 12.6654 19.866 12.4898 20.1785 12.1772C20.4911 11.8646 20.6667 11.4407 20.6667 10.9987C20.6667 10.5567 20.4911 10.1327 20.1785 9.82019C19.866 9.50763 19.442 9.33203 19 9.33203C16.6667 9.33203 16 12.6654 16 12.6654Z" stroke="#DF2CAD" stroke-linecap="round" stroke-linejoin="round"></path><path d="M15.9999 12.6654H12.9999C12.5579 12.6654 12.134 12.4898 11.8214 12.1772C11.5088 11.8646 11.3333 11.4407 11.3333 10.9987C11.3333 10.5567 11.5088 10.1327 11.8214 9.82019C12.134 9.50763 12.5579 9.33203 12.9999 9.33203C15.3333 9.33203 15.9999 12.6654 15.9999 12.6654Z" stroke="#DF2CAD" stroke-linecap="round" stroke-linejoin="round"></path></g><rect x="0.5" y="0.5" width="31" height="31" rx="7.5" stroke="#E4E4E4"></rect><defs><clipPath id="clip0_3256_12245"><rect width="16" height="16" fill="white" transform="translate(8 8)"></rect></clipPath></defs></svg>