<svg xmlns="http://www.w3.org/2000/svg" width="32" height="32" viewBox="0 0 32 32" fill="none"><rect x="0.5" y="0.5" width="31" height="31" rx="7.5" fill="white"></rect><path d="M21.7267 16.9387L16.9467 21.7187C16.8229 21.8427 16.6758 21.941 16.514 22.0081C16.3521 22.0752 16.1786 22.1097 16.0034 22.1097C15.8282 22.1097 15.6547 22.0752 15.4928 22.0081C15.3309 21.941 15.1839 21.8427 15.06 21.7187L9.33337 15.9987V9.33203H16L21.7267 15.0587C21.975 15.3085 22.1144 15.6465 22.1144 15.9987C22.1144 16.3509 21.975 16.6889 21.7267 16.9387V16.9387Z" stroke="#CC2D2D" stroke-linecap="round" stroke-linejoin="round"></path><path d="M12.6666 12.668H12.6733" stroke="#CC2D2D" stroke-linecap="round" stroke-linejoin="round"></path><rect x="0.5" y="0.5" width="31" height="31" rx="7.5" stroke="#E4E4E4"></rect></svg>