<svg xmlns="http://www.w3.org/2000/svg" width="33" height="32" viewBox="0 0 33 32" fill="none"><rect x="1" y="0.5" width="31" height="31" rx="7.5" fill="white"></rect><path d="M22.3933 11.0746C22.0528 10.7339 21.6485 10.4636 21.2036 10.2793C20.7586 10.0949 20.2817 10 19.8 10C19.3183 10 18.8414 10.0949 18.3964 10.2793C17.9515 10.4636 17.5472 10.7339 17.2067 11.0746L16.5 11.7812L15.7933 11.0746C15.1055 10.3868 14.1727 10.0004 13.2 10.0004C12.2273 10.0004 11.2945 10.3868 10.6067 11.0746C9.91887 11.7623 9.53247 12.6952 9.53247 13.6679C9.53247 14.6406 9.91887 15.5734 10.6067 16.2612L11.3133 16.9679L16.5 22.1545L21.6867 16.9679L22.3933 16.2612C22.734 15.9207 23.0042 15.5164 23.1886 15.0715C23.373 14.6265 23.4679 14.1495 23.4679 13.6679C23.4679 13.1862 23.373 12.7093 23.1886 12.2643C23.0042 11.8193 22.734 11.4151 22.3933 11.0746V11.0746Z" stroke="#DF2C3C" stroke-linecap="round" stroke-linejoin="round"></path><rect x="1" y="0.5" width="31" height="31" rx="7.5" stroke="#E4E4E4"></rect></svg>