<svg xmlns="http://www.w3.org/2000/svg" width="32" height="32" viewBox="0 0 32 32" fill="none"><rect x="0.5" y="0.5" width="31" height="31" rx="7.5" fill="white"></rect><path d="M10.6667 16.668C11.8555 16.8092 12.9621 17.3463 13.8086 18.1928C14.6551 19.0393 15.1921 20.1459 15.3334 21.3346C15.9227 20.9949 16.4156 20.5105 16.7656 19.9273C17.1155 19.344 17.311 18.6811 17.3334 18.0013C18.4528 17.6075 19.4303 16.8906 20.1423 15.9413C20.8543 14.992 21.2688 13.8529 21.3334 12.668C21.3334 12.1375 21.1227 11.6288 20.7476 11.2538C20.3726 10.8787 19.8638 10.668 19.3334 10.668C18.1485 10.7326 17.0094 11.1471 16.0601 11.8591C15.1108 12.5711 14.3939 13.5486 14.0001 14.668C13.3203 14.6904 12.6574 14.8859 12.0741 15.2358C11.4909 15.5858 11.0065 16.0787 10.6667 16.668" stroke="#9B3D9A" stroke-linecap="round" stroke-linejoin="round"></path><path d="M12.6666 17.332C11.9727 17.7237 11.4117 18.3138 11.0554 19.0264C10.699 19.7391 10.5636 20.5419 10.6666 21.332C11.4567 21.435 12.2595 21.2996 12.9722 20.9433C13.6849 20.5869 14.2749 20.0259 14.6666 19.332" stroke="#9B3D9A" stroke-linecap="round" stroke-linejoin="round"></path><path d="M17.9999 14.6654C18.3681 14.6654 18.6666 14.3669 18.6666 13.9987C18.6666 13.6305 18.3681 13.332 17.9999 13.332C17.6317 13.332 17.3333 13.6305 17.3333 13.9987C17.3333 14.3669 17.6317 14.6654 17.9999 14.6654Z" stroke="#9B3D9A" stroke-linecap="round" stroke-linejoin="round"></path><rect x="0.5" y="0.5" width="31" height="31" rx="7.5" stroke="#E4E4E4"></rect></svg>