<svg xmlns="http://www.w3.org/2000/svg" width="32" height="32" viewBox="0 0 32 32" fill="none"><rect x="0.5" y="0.5" width="31" height="31" rx="7.5" fill="white"></rect><g clip-path="url(#clip0_3256_10953)"><mask id="path-2-inside-1_3256_10953" fill="white"><path d="M20.8125 10.75H19.0625C18.821 10.75 18.625 10.946 18.625 11.1875V12.9375C18.625 13.179 18.821 13.375 19.0625 13.375H20.8125C21.054 13.375 21.25 13.179 21.25 12.9375V11.1875C21.25 10.946 21.054 10.75 20.8125 10.75ZM20.375 12.5H19.5V11.625H20.375V12.5Z"></path></mask><path d="M20.8125 10.75H19.0625C18.821 10.75 18.625 10.946 18.625 11.1875V12.9375C18.625 13.179 18.821 13.375 19.0625 13.375H20.8125C21.054 13.375 21.25 13.179 21.25 12.9375V11.1875C21.25 10.946 21.054 10.75 20.8125 10.75ZM20.375 12.5H19.5V11.625H20.375V12.5Z" fill="#538EA1"></path><path d="M20.375 12.5V13.5H21.375V12.5H20.375ZM19.5 12.5H18.5V13.5H19.5V12.5ZM19.5 11.625V10.625H18.5V11.625H19.5ZM20.375 11.625H21.375V10.625H20.375V11.625ZM20.8125 9.75H19.0625V11.75H20.8125V9.75ZM19.0625 9.75C18.2687 9.75 17.625 10.3937 17.625 11.1875H19.625C19.625 11.4983 19.3733 11.75 19.0625 11.75V9.75ZM17.625 11.1875V12.9375H19.625V11.1875H17.625ZM17.625 12.9375C17.625 13.7313 18.2687 14.375 19.0625 14.375V12.375C19.3733 12.375 19.625 12.6267 19.625 12.9375H17.625ZM19.0625 14.375H20.8125V12.375H19.0625V14.375ZM20.8125 14.375C21.6063 14.375 22.25 13.7313 22.25 12.9375H20.25C20.25 12.6267 20.5017 12.375 20.8125 12.375V14.375ZM22.25 12.9375V11.1875H20.25V12.9375H22.25ZM22.25 11.1875C22.25 10.3937 21.6063 9.75 20.8125 9.75V11.75C20.5017 11.75 20.25 11.4983 20.25 11.1875H22.25ZM20.375 11.5H19.5V13.5H20.375V11.5ZM20.5 12.5V11.625H18.5V12.5H20.5ZM19.5 12.625H20.375V10.625H19.5V12.625ZM19.375 11.625V12.5H21.375V11.625H19.375Z" fill="#538EA1" mask="url(#path-2-inside-1_3256_10953)"></path><mask id="path-4-inside-2_3256_10953" fill="white"><path d="M22.5625 9H17.3125C17.071 9 16.875 9.196 16.875 9.4375V14.6875C16.875 14.929 17.071 15.125 17.3125 15.125H22.5625C22.804 15.125 23 14.929 23 14.6875V9.4375C23 9.196 22.804 9 22.5625 9ZM22.125 14.25H17.75V9.875H22.125V14.25Z"></path></mask><path d="M22.5625 9H17.3125C17.071 9 16.875 9.196 16.875 9.4375V14.6875C16.875 14.929 17.071 15.125 17.3125 15.125H22.5625C22.804 15.125 23 14.929 23 14.6875V9.4375C23 9.196 22.804 9 22.5625 9ZM22.125 14.25H17.75V9.875H22.125V14.25Z" fill="#538EA1"></path><path d="M22.125 14.25V15.25H23.125V14.25H22.125ZM17.75 14.25H16.75V15.25H17.75V14.25ZM17.75 9.875V8.875H16.75V9.875H17.75ZM22.125 9.875H23.125V8.875H22.125V9.875ZM22.5625 8H17.3125V10H22.5625V8ZM17.3125 8C16.5187 8 15.875 8.64372 15.875 9.4375H17.875C17.875 9.74828 17.6233 10 17.3125 10V8ZM15.875 9.4375V14.6875H17.875V9.4375H15.875ZM15.875 14.6875C15.875 15.4813 16.5187 16.125 17.3125 16.125V14.125C17.6233 14.125 17.875 14.3767 17.875 14.6875H15.875ZM17.3125 16.125H22.5625V14.125H17.3125V16.125ZM22.5625 16.125C23.3563 16.125 24 15.4813 24 14.6875H22C22 14.3767 22.2517 14.125 22.5625 14.125V16.125ZM24 14.6875V9.4375H22V14.6875H24ZM24 9.4375C24 8.64372 23.3563 8 22.5625 8V10C22.2517 10 22 9.74828 22 9.4375H24ZM22.125 13.25H17.75V15.25H22.125V13.25ZM18.75 14.25V9.875H16.75V14.25H18.75ZM17.75 10.875H22.125V8.875H17.75V10.875ZM21.125 9.875V14.25H23.125V9.875H21.125Z" fill="#538EA1" mask="url(#path-4-inside-2_3256_10953)"></path><mask id="path-6-inside-3_3256_10953" fill="white"><path d="M12.9375 10.75H11.1875C10.946 10.75 10.75 10.946 10.75 11.1875V12.9375C10.75 13.179 10.946 13.375 11.1875 13.375H12.9375C13.179 13.375 13.375 13.179 13.375 12.9375V11.1875C13.375 10.946 13.179 10.75 12.9375 10.75ZM12.5 12.5H11.625V11.625H12.5V12.5Z"></path></mask><path d="M12.9375 10.75H11.1875C10.946 10.75 10.75 10.946 10.75 11.1875V12.9375C10.75 13.179 10.946 13.375 11.1875 13.375H12.9375C13.179 13.375 13.375 13.179 13.375 12.9375V11.1875C13.375 10.946 13.179 10.75 12.9375 10.75ZM12.5 12.5H11.625V11.625H12.5V12.5Z" fill="#538EA1"></path><path d="M12.5 12.5V13.5H13.5V12.5H12.5ZM11.625 12.5H10.625V13.5H11.625V12.5ZM11.625 11.625V10.625H10.625V11.625H11.625ZM12.5 11.625H13.5V10.625H12.5V11.625ZM12.9375 9.75H11.1875V11.75H12.9375V9.75ZM11.1875 9.75C10.3937 9.75 9.75 10.3937 9.75 11.1875H11.75C11.75 11.4983 11.4983 11.75 11.1875 11.75V9.75ZM9.75 11.1875V12.9375H11.75V11.1875H9.75ZM9.75 12.9375C9.75 13.7313 10.3937 14.375 11.1875 14.375V12.375C11.4983 12.375 11.75 12.6267 11.75 12.9375H9.75ZM11.1875 14.375H12.9375V12.375H11.1875V14.375ZM12.9375 14.375C13.7313 14.375 14.375 13.7313 14.375 12.9375H12.375C12.375 12.6267 12.6267 12.375 12.9375 12.375V14.375ZM14.375 12.9375V11.1875H12.375V12.9375H14.375ZM14.375 11.1875C14.375 10.3937 13.7313 9.75 12.9375 9.75V11.75C12.6267 11.75 12.375 11.4983 12.375 11.1875H14.375ZM12.5 11.5H11.625V13.5H12.5V11.5ZM12.625 12.5V11.625H10.625V12.5H12.625ZM11.625 12.625H12.5V10.625H11.625V12.625ZM11.5 11.625V12.5H13.5V11.625H11.5Z" fill="#538EA1" mask="url(#path-6-inside-3_3256_10953)"></path><mask id="path-8-inside-4_3256_10953" fill="white"><path d="M14.6875 9H9.4375C9.196 9 9 9.196 9 9.4375V14.6875C9 14.929 9.196 15.125 9.4375 15.125H14.6875C14.929 15.125 15.125 14.929 15.125 14.6875V9.4375C15.125 9.196 14.929 9 14.6875 9ZM14.25 14.25H9.875V9.875H14.25V14.25Z"></path></mask><path d="M14.6875 9H9.4375C9.196 9 9 9.196 9 9.4375V14.6875C9 14.929 9.196 15.125 9.4375 15.125H14.6875C14.929 15.125 15.125 14.929 15.125 14.6875V9.4375C15.125 9.196 14.929 9 14.6875 9ZM14.25 14.25H9.875V9.875H14.25V14.25Z" fill="#538EA1"></path><path d="M14.25 14.25V15.25H15.25V14.25H14.25ZM9.875 14.25H8.875V15.25H9.875V14.25ZM9.875 9.875V8.875H8.875V9.875H9.875ZM14.25 9.875H15.25V8.875H14.25V9.875ZM14.6875 8H9.4375V10H14.6875V8ZM9.4375 8C8.64372 8 8 8.64372 8 9.4375H10C10 9.74828 9.74828 10 9.4375 10V8ZM8 9.4375V14.6875H10V9.4375H8ZM8 14.6875C8 15.4813 8.64372 16.125 9.4375 16.125V14.125C9.74828 14.125 10 14.3767 10 14.6875H8ZM9.4375 16.125H14.6875V14.125H9.4375V16.125ZM14.6875 16.125C15.4813 16.125 16.125 15.4813 16.125 14.6875H14.125C14.125 14.3767 14.3767 14.125 14.6875 14.125V16.125ZM16.125 14.6875V9.4375H14.125V14.6875H16.125ZM16.125 9.4375C16.125 8.64372 15.4813 8 14.6875 8V10C14.3767 10 14.125 9.74828 14.125 9.4375H16.125ZM14.25 13.25H9.875V15.25H14.25V13.25ZM10.875 14.25V9.875H8.875V14.25H10.875ZM9.875 10.875H14.25V8.875H9.875V10.875ZM13.25 9.875V14.25H15.25V9.875H13.25Z" fill="#538EA1" mask="url(#path-8-inside-4_3256_10953)"></path><path d="M12.9375 18.625H11.1875C10.946 18.625 10.75 18.821 10.75 19.0625V20.8125C10.75 21.054 10.946 21.25 11.1875 21.25H12.9375C13.179 21.25 13.375 21.054 13.375 20.8125V19.0625C13.375 18.821 13.179 18.625 12.9375 18.625ZM12.5 20.375H11.625V19.5H12.5V20.375Z" fill="#538EA1"></path><path d="M19.9375 20.375H19.5V19.9375C19.5 19.696 19.304 19.5 19.0625 19.5C18.821 19.5 18.625 19.696 18.625 19.9375V20.375H18.1875C17.946 20.375 17.75 20.571 17.75 20.8125V22.5625C17.75 22.804 17.946 23 18.1875 23C18.429 23 18.625 22.804 18.625 22.5625V21.25H19.5V22.5625C19.5 22.804 19.696 23 19.9375 23C20.179 23 20.375 22.804 20.375 22.5625V20.8125C20.375 20.571 20.179 20.375 19.9375 20.375Z" fill="#538EA1"></path><path d="M22.5625 16.875H20.8125C20.571 16.875 20.375 17.071 20.375 17.3125V19.0625C20.375 19.304 20.571 19.5 20.8125 19.5C21.054 19.5 21.25 19.304 21.25 19.0625V17.75H22.5625C22.804 17.75 23 17.554 23 17.3125C23 17.071 22.804 16.875 22.5625 16.875Z" fill="#538EA1"></path><path d="M19.0625 16.875H17.3125C17.071 16.875 16.875 17.071 16.875 17.3125V19.0625C16.875 19.304 17.071 19.5 17.3125 19.5C17.554 19.5 17.75 19.304 17.75 19.0625V17.75H19.0625C19.304 17.75 19.5 17.554 19.5 17.3125C19.5 17.071 19.304 16.875 19.0625 16.875Z" fill="#538EA1"></path><path d="M14.6875 16.875H9.4375C9.196 16.875 9 17.071 9 17.3125V22.5625C9 22.804 9.196 23 9.4375 23H14.6875C14.929 23 15.125 22.804 15.125 22.5625V17.3125C15.125 17.071 14.929 16.875 14.6875 16.875ZM14.25 22.125H9.875V17.75H14.25V22.125Z" fill="#538EA1"></path><path d="M22.5625 19.5C22.321 19.5 22.125 19.696 22.125 19.9375V22.5625C22.125 22.804 22.321 23 22.5625 23C22.804 23 23 22.804 23 22.5625V19.9375C23 19.696 22.804 19.5 22.5625 19.5Z" fill="#538EA1"></path></g><rect x="0.5" y="0.5" width="31" height="31" rx="7.5" stroke="#E4E4E4"></rect><defs><clipPath id="clip0_3256_10953"><rect width="14" height="14" fill="white" transform="translate(9 9)"></rect></clipPath></defs></svg>