<svg xmlns="http://www.w3.org/2000/svg" width="32" height="32" viewBox="0 0 32 32" fill="none"><rect x="0.5" y="0.5" width="31" height="31" rx="7.5" fill="white"></rect><path d="M22 15.6667C22.0023 16.5466 21.7967 17.4146 21.4 18.2C20.9296 19.1412 20.2065 19.9328 19.3116 20.4862C18.4168 21.0396 17.3855 21.3329 16.3333 21.3334C15.4534 21.3356 14.5854 21.1301 13.8 20.7334L10 22L11.2667 18.2C10.87 17.4146 10.6644 16.5466 10.6667 15.6667C10.6671 14.6145 10.9604 13.5833 11.5138 12.6884C12.0672 11.7935 12.8588 11.0704 13.8 10.6C14.5854 10.2033 15.4534 9.99772 16.3333 10H16.6667C18.0562 10.0767 19.3687 10.6632 20.3528 11.6473C21.3368 12.6313 21.9233 13.9438 22 15.3334V15.6667Z" stroke="#5C5BFF" stroke-linecap="round" stroke-linejoin="round"></path><rect x="0.5" y="0.5" width="31" height="31" rx="7.5" stroke="#E4E4E4"></rect></svg>