<svg xmlns="http://www.w3.org/2000/svg" width="32" height="32" viewBox="0 0 32 32" fill="none"><rect x="0.5" y="0.5" width="31" height="31" rx="7.5" fill="white"></rect><path d="M17.3334 9.33203H12.0001C11.6465 9.33203 11.3073 9.47251 11.0573 9.72256C10.8072 9.9726 10.6667 10.3117 10.6667 10.6654V21.332C10.6667 21.6857 10.8072 22.0248 11.0573 22.2748C11.3073 22.5249 11.6465 22.6654 12.0001 22.6654H20.0001C20.3537 22.6654 20.6928 22.5249 20.9429 22.2748C21.1929 22.0248 21.3334 21.6857 21.3334 21.332V13.332L17.3334 9.33203Z" stroke="#1577E9" stroke-linecap="round" stroke-linejoin="round"></path><path d="M18.6666 19.332H13.3333" stroke="#1577E9" stroke-linecap="round" stroke-linejoin="round"></path><path d="M18.6666 16.668H13.3333" stroke="#1577E9" stroke-linecap="round" stroke-linejoin="round"></path><path d="M14.6666 14H13.9999H13.3333" stroke="#1577E9" stroke-linecap="round" stroke-linejoin="round"></path><path d="M17.3333 9.33203V13.332H21.3333" stroke="#1577E9" stroke-linecap="round" stroke-linejoin="round"></path><rect x="0.5" y="0.5" width="31" height="31" rx="7.5" stroke="#E4E4E4"></rect></svg>